<mxfile host="app.diagrams.net" modified="2023-02-13T18:55:59.915Z" agent="5.0 (Windows NT 10.0; Win64; x64) AppleWebKit/537.36 (KHTML, like Gecko) Chrome/108.0.0.0 Safari/537.36 OPR/94.0.0.0 (Edition Yx GX)" etag="JZDUOtzZ5VXqR_V6nIde" version="20.8.20" type="github">
  <diagram id="C5RBs43oDa-KdzZeNtuy" name="Page-1">
    <mxGraphModel dx="2559" dy="3234" grid="1" gridSize="10" guides="1" tooltips="1" connect="1" arrows="1" fold="1" page="1" pageScale="1" pageWidth="1654" pageHeight="2336" math="0" shadow="0">
      <root>
        <mxCell id="WIyWlLk6GJQsqaUBKTNV-0" />
        <mxCell id="WIyWlLk6GJQsqaUBKTNV-1" parent="WIyWlLk6GJQsqaUBKTNV-0" />
        <mxCell id="yhRUgez4aXhPSnII19fP-4" value="Игровой клуб&lt;br&gt;" style="rounded=0;whiteSpace=wrap;html=1;labelBackgroundColor=none;" vertex="1" parent="WIyWlLk6GJQsqaUBKTNV-1">
          <mxGeometry x="40" y="-1220" width="120" height="60" as="geometry" />
        </mxCell>
        <mxCell id="yhRUgez4aXhPSnII19fP-7" value="Клиенты" style="rounded=1;whiteSpace=wrap;html=1;labelBackgroundColor=none;" vertex="1" parent="WIyWlLk6GJQsqaUBKTNV-1">
          <mxGeometry x="-290" y="-1130" width="120" height="60" as="geometry" />
        </mxCell>
        <mxCell id="yhRUgez4aXhPSnII19fP-8" value="Группа" style="rounded=1;whiteSpace=wrap;html=1;labelBackgroundColor=none;" vertex="1" parent="WIyWlLk6GJQsqaUBKTNV-1">
          <mxGeometry x="-10" y="-1130" width="120" height="60" as="geometry" />
        </mxCell>
        <mxCell id="yhRUgez4aXhPSnII19fP-9" value="Сотрудники" style="rounded=1;whiteSpace=wrap;html=1;labelBackgroundColor=none;" vertex="1" parent="WIyWlLk6GJQsqaUBKTNV-1">
          <mxGeometry x="140" y="-1130" width="120" height="60" as="geometry" />
        </mxCell>
        <mxCell id="yhRUgez4aXhPSnII19fP-10" value="Посещение" style="rounded=1;whiteSpace=wrap;html=1;labelBackgroundColor=none;" vertex="1" parent="WIyWlLk6GJQsqaUBKTNV-1">
          <mxGeometry x="280" y="-1130" width="120" height="60" as="geometry" />
        </mxCell>
        <mxCell id="yhRUgez4aXhPSnII19fP-112" style="edgeStyle=orthogonalEdgeStyle;rounded=0;orthogonalLoop=1;jettySize=auto;html=1;exitX=1;exitY=0.75;exitDx=0;exitDy=0;" edge="1" parent="WIyWlLk6GJQsqaUBKTNV-1" source="yhRUgez4aXhPSnII19fP-14" target="yhRUgez4aXhPSnII19fP-107">
          <mxGeometry relative="1" as="geometry" />
        </mxCell>
        <mxCell id="yhRUgez4aXhPSnII19fP-14" value="Клиенты" style="swimlane;whiteSpace=wrap;html=1;labelBackgroundColor=none;startSize=30;fillColor=#dae8fc;strokeColor=#6c8ebf;" vertex="1" parent="WIyWlLk6GJQsqaUBKTNV-1">
          <mxGeometry x="-290" y="-1060" width="130" height="190" as="geometry" />
        </mxCell>
        <mxCell id="yhRUgez4aXhPSnII19fP-17" value="ФИО" style="text;html=1;align=center;verticalAlign=middle;resizable=0;points=[];autosize=1;strokeColor=none;fillColor=none;" vertex="1" parent="yhRUgez4aXhPSnII19fP-14">
          <mxGeometry y="30" width="50" height="30" as="geometry" />
        </mxCell>
        <mxCell id="yhRUgez4aXhPSnII19fP-18" value="Адрес" style="text;html=1;align=center;verticalAlign=middle;resizable=0;points=[];autosize=1;strokeColor=none;fillColor=none;" vertex="1" parent="yhRUgez4aXhPSnII19fP-14">
          <mxGeometry x="-5" y="60" width="60" height="30" as="geometry" />
        </mxCell>
        <mxCell id="yhRUgez4aXhPSnII19fP-21" value="Телефон" style="text;html=1;align=center;verticalAlign=middle;resizable=0;points=[];autosize=1;strokeColor=none;fillColor=none;" vertex="1" parent="yhRUgez4aXhPSnII19fP-14">
          <mxGeometry x="-5" y="90" width="70" height="30" as="geometry" />
        </mxCell>
        <mxCell id="yhRUgez4aXhPSnII19fP-22" value="Почта&lt;br&gt;" style="text;html=1;align=center;verticalAlign=middle;resizable=0;points=[];autosize=1;strokeColor=none;fillColor=none;" vertex="1" parent="yhRUgez4aXhPSnII19fP-14">
          <mxGeometry x="-5" y="120" width="60" height="30" as="geometry" />
        </mxCell>
        <mxCell id="yhRUgez4aXhPSnII19fP-106" value="Код клиента" style="text;html=1;align=center;verticalAlign=middle;resizable=0;points=[];autosize=1;strokeColor=none;fillColor=none;" vertex="1" parent="yhRUgez4aXhPSnII19fP-14">
          <mxGeometry x="-5" y="150" width="90" height="30" as="geometry" />
        </mxCell>
        <mxCell id="yhRUgez4aXhPSnII19fP-115" style="edgeStyle=orthogonalEdgeStyle;rounded=0;orthogonalLoop=1;jettySize=auto;html=1;exitX=1;exitY=0.25;exitDx=0;exitDy=0;entryX=-0.057;entryY=0.667;entryDx=0;entryDy=0;entryPerimeter=0;" edge="1" parent="WIyWlLk6GJQsqaUBKTNV-1" source="yhRUgez4aXhPSnII19fP-26" target="yhRUgez4aXhPSnII19fP-103">
          <mxGeometry relative="1" as="geometry" />
        </mxCell>
        <mxCell id="yhRUgez4aXhPSnII19fP-116" style="edgeStyle=orthogonalEdgeStyle;rounded=0;orthogonalLoop=1;jettySize=auto;html=1;exitX=1;exitY=0.75;exitDx=0;exitDy=0;entryX=-0.017;entryY=0.5;entryDx=0;entryDy=0;entryPerimeter=0;" edge="1" parent="WIyWlLk6GJQsqaUBKTNV-1" source="yhRUgez4aXhPSnII19fP-26" target="yhRUgez4aXhPSnII19fP-102">
          <mxGeometry relative="1" as="geometry" />
        </mxCell>
        <mxCell id="yhRUgez4aXhPSnII19fP-26" value="Услуги" style="swimlane;whiteSpace=wrap;html=1;labelBackgroundColor=none;fillColor=#f8cecc;strokeColor=#b85450;" vertex="1" parent="WIyWlLk6GJQsqaUBKTNV-1">
          <mxGeometry x="-50" y="-1050" width="130" height="180" as="geometry" />
        </mxCell>
        <mxCell id="yhRUgez4aXhPSnII19fP-28" value="Код услуги" style="text;html=1;strokeColor=none;fillColor=none;align=center;verticalAlign=middle;whiteSpace=wrap;rounded=0;" vertex="1" parent="yhRUgez4aXhPSnII19fP-26">
          <mxGeometry x="5" y="30" width="80" height="30" as="geometry" />
        </mxCell>
        <mxCell id="yhRUgez4aXhPSnII19fP-27" value="Наименование услуги&lt;br&gt;" style="text;html=1;strokeColor=none;fillColor=none;align=center;verticalAlign=middle;whiteSpace=wrap;rounded=0;" vertex="1" parent="yhRUgez4aXhPSnII19fP-26">
          <mxGeometry x="25" y="80" width="60" height="10" as="geometry" />
        </mxCell>
        <mxCell id="yhRUgez4aXhPSnII19fP-93" value="Цена услуги" style="text;html=1;align=center;verticalAlign=middle;resizable=0;points=[];autosize=1;strokeColor=none;fillColor=none;" vertex="1" parent="yhRUgez4aXhPSnII19fP-26">
          <mxGeometry x="5" y="110" width="90" height="30" as="geometry" />
        </mxCell>
        <mxCell id="yhRUgez4aXhPSnII19fP-107" value="id Гостя" style="text;html=1;align=center;verticalAlign=middle;resizable=0;points=[];autosize=1;strokeColor=none;fillColor=none;" vertex="1" parent="yhRUgez4aXhPSnII19fP-26">
          <mxGeometry x="5" y="140" width="70" height="30" as="geometry" />
        </mxCell>
        <mxCell id="yhRUgez4aXhPSnII19fP-29" value="Время&lt;br&gt;" style="rounded=1;whiteSpace=wrap;html=1;labelBackgroundColor=none;" vertex="1" parent="WIyWlLk6GJQsqaUBKTNV-1">
          <mxGeometry x="430" y="-1130" width="120" height="60" as="geometry" />
        </mxCell>
        <mxCell id="yhRUgez4aXhPSnII19fP-118" style="edgeStyle=orthogonalEdgeStyle;rounded=0;orthogonalLoop=1;jettySize=auto;html=1;exitX=0;exitY=0.5;exitDx=0;exitDy=0;entryX=1;entryY=0.75;entryDx=0;entryDy=0;" edge="1" parent="WIyWlLk6GJQsqaUBKTNV-1" source="yhRUgez4aXhPSnII19fP-34" target="yhRUgez4aXhPSnII19fP-101">
          <mxGeometry relative="1" as="geometry" />
        </mxCell>
        <mxCell id="yhRUgez4aXhPSnII19fP-122" style="edgeStyle=orthogonalEdgeStyle;rounded=0;orthogonalLoop=1;jettySize=auto;html=1;exitX=0;exitY=0.5;exitDx=0;exitDy=0;entryX=1;entryY=0.5;entryDx=0;entryDy=0;" edge="1" parent="WIyWlLk6GJQsqaUBKTNV-1" source="yhRUgez4aXhPSnII19fP-34" target="yhRUgez4aXhPSnII19fP-89">
          <mxGeometry relative="1" as="geometry" />
        </mxCell>
        <mxCell id="yhRUgez4aXhPSnII19fP-34" value="Время&lt;br&gt;" style="swimlane;whiteSpace=wrap;html=1;labelBackgroundColor=none;fillColor=#f8cecc;strokeColor=#b85450;" vertex="1" parent="WIyWlLk6GJQsqaUBKTNV-1">
          <mxGeometry x="400" y="-980" width="130" height="110" as="geometry" />
        </mxCell>
        <mxCell id="yhRUgez4aXhPSnII19fP-35" value="id время" style="text;html=1;align=center;verticalAlign=middle;resizable=0;points=[];autosize=1;strokeColor=none;fillColor=none;" vertex="1" parent="yhRUgez4aXhPSnII19fP-34">
          <mxGeometry x="30" y="40" width="70" height="30" as="geometry" />
        </mxCell>
        <mxCell id="yhRUgez4aXhPSnII19fP-114" style="edgeStyle=orthogonalEdgeStyle;rounded=0;orthogonalLoop=1;jettySize=auto;html=1;exitX=1;exitY=0.25;exitDx=0;exitDy=0;" edge="1" parent="WIyWlLk6GJQsqaUBKTNV-1" source="yhRUgez4aXhPSnII19fP-69">
          <mxGeometry relative="1" as="geometry">
            <mxPoint x="-20" y="-740" as="targetPoint" />
          </mxGeometry>
        </mxCell>
        <mxCell id="yhRUgez4aXhPSnII19fP-119" style="edgeStyle=orthogonalEdgeStyle;rounded=0;orthogonalLoop=1;jettySize=auto;html=1;exitX=1;exitY=0.25;exitDx=0;exitDy=0;entryX=1;entryY=1;entryDx=0;entryDy=0;" edge="1" parent="WIyWlLk6GJQsqaUBKTNV-1" source="yhRUgez4aXhPSnII19fP-69" target="yhRUgez4aXhPSnII19fP-14">
          <mxGeometry relative="1" as="geometry" />
        </mxCell>
        <mxCell id="yhRUgez4aXhPSnII19fP-69" value="Сотрудники" style="swimlane;whiteSpace=wrap;html=1;labelBackgroundColor=none;startSize=30;fillColor=#d5e8d4;strokeColor=#82b366;" vertex="1" parent="WIyWlLk6GJQsqaUBKTNV-1">
          <mxGeometry x="-290" y="-810" width="130" height="150" as="geometry" />
        </mxCell>
        <mxCell id="yhRUgez4aXhPSnII19fP-70" value="ФИО" style="text;html=1;align=center;verticalAlign=middle;resizable=0;points=[];autosize=1;strokeColor=none;fillColor=none;" vertex="1" parent="yhRUgez4aXhPSnII19fP-69">
          <mxGeometry y="30" width="50" height="30" as="geometry" />
        </mxCell>
        <mxCell id="yhRUgez4aXhPSnII19fP-71" value="Адрес" style="text;html=1;align=center;verticalAlign=middle;resizable=0;points=[];autosize=1;strokeColor=none;fillColor=none;" vertex="1" parent="yhRUgez4aXhPSnII19fP-69">
          <mxGeometry x="-5" y="60" width="60" height="30" as="geometry" />
        </mxCell>
        <mxCell id="yhRUgez4aXhPSnII19fP-72" value="Телефон" style="text;html=1;align=center;verticalAlign=middle;resizable=0;points=[];autosize=1;strokeColor=none;fillColor=none;" vertex="1" parent="yhRUgez4aXhPSnII19fP-69">
          <mxGeometry x="-5" y="90" width="70" height="30" as="geometry" />
        </mxCell>
        <mxCell id="yhRUgez4aXhPSnII19fP-73" value="Почта&lt;br&gt;" style="text;html=1;align=center;verticalAlign=middle;resizable=0;points=[];autosize=1;strokeColor=none;fillColor=none;" vertex="1" parent="yhRUgez4aXhPSnII19fP-69">
          <mxGeometry x="-5" y="120" width="60" height="30" as="geometry" />
        </mxCell>
        <mxCell id="yhRUgez4aXhPSnII19fP-85" value="Должности" style="swimlane;whiteSpace=wrap;html=1;labelBackgroundColor=none;fillColor=#dae8fc;strokeColor=#6c8ebf;" vertex="1" parent="WIyWlLk6GJQsqaUBKTNV-1">
          <mxGeometry x="-20" y="-795" width="130" height="120" as="geometry" />
        </mxCell>
        <mxCell id="yhRUgez4aXhPSnII19fP-86" value="№_должности" style="text;html=1;align=center;verticalAlign=middle;resizable=0;points=[];autosize=1;strokeColor=none;fillColor=none;" vertex="1" parent="yhRUgez4aXhPSnII19fP-85">
          <mxGeometry x="10" y="35" width="100" height="30" as="geometry" />
        </mxCell>
        <mxCell id="yhRUgez4aXhPSnII19fP-87" value="Заполнение" style="text;html=1;align=center;verticalAlign=middle;resizable=0;points=[];autosize=1;strokeColor=none;fillColor=none;" vertex="1" parent="yhRUgez4aXhPSnII19fP-85">
          <mxGeometry x="10" y="65" width="90" height="30" as="geometry" />
        </mxCell>
        <mxCell id="yhRUgez4aXhPSnII19fP-89" value="Посещение" style="swimlane;whiteSpace=wrap;html=1;labelBackgroundColor=none;startSize=30;fillColor=#dae8fc;strokeColor=#6c8ebf;" vertex="1" parent="WIyWlLk6GJQsqaUBKTNV-1">
          <mxGeometry x="210" y="-810" width="135" height="115" as="geometry" />
        </mxCell>
        <mxCell id="yhRUgez4aXhPSnII19fP-120" value="Постоянные клиенты" style="text;html=1;align=center;verticalAlign=middle;resizable=0;points=[];autosize=1;strokeColor=none;fillColor=none;" vertex="1" parent="yhRUgez4aXhPSnII19fP-89">
          <mxGeometry x="-5" y="70" width="140" height="30" as="geometry" />
        </mxCell>
        <mxCell id="yhRUgez4aXhPSnII19fP-121" value="id клиента&amp;nbsp; -2" style="text;html=1;align=center;verticalAlign=middle;resizable=0;points=[];autosize=1;strokeColor=none;fillColor=none;" vertex="1" parent="yhRUgez4aXhPSnII19fP-89">
          <mxGeometry x="-5" y="30" width="100" height="30" as="geometry" />
        </mxCell>
        <mxCell id="yhRUgez4aXhPSnII19fP-97" value="Услуги&lt;br&gt;" style="rounded=1;whiteSpace=wrap;html=1;labelBackgroundColor=none;" vertex="1" parent="WIyWlLk6GJQsqaUBKTNV-1">
          <mxGeometry x="-150" y="-1130" width="120" height="60" as="geometry" />
        </mxCell>
        <mxCell id="yhRUgez4aXhPSnII19fP-101" value="Оказанные услуги" style="swimlane;whiteSpace=wrap;html=1;labelBackgroundColor=none;fillColor=#f8cecc;strokeColor=#b85450;" vertex="1" parent="WIyWlLk6GJQsqaUBKTNV-1">
          <mxGeometry x="190" y="-1030" width="140" height="130" as="geometry" />
        </mxCell>
        <mxCell id="yhRUgez4aXhPSnII19fP-103" value="id Услуги" style="text;html=1;align=center;verticalAlign=middle;resizable=0;points=[];autosize=1;strokeColor=none;fillColor=none;" vertex="1" parent="yhRUgez4aXhPSnII19fP-101">
          <mxGeometry x="10" y="30" width="70" height="30" as="geometry" />
        </mxCell>
        <mxCell id="yhRUgez4aXhPSnII19fP-104" value="Цена" style="text;html=1;align=center;verticalAlign=middle;resizable=0;points=[];autosize=1;strokeColor=none;fillColor=none;" vertex="1" parent="yhRUgez4aXhPSnII19fP-101">
          <mxGeometry x="10" y="60" width="50" height="30" as="geometry" />
        </mxCell>
        <mxCell id="yhRUgez4aXhPSnII19fP-102" value="id Бронирования" style="text;html=1;align=center;verticalAlign=middle;resizable=0;points=[];autosize=1;strokeColor=none;fillColor=none;" vertex="1" parent="yhRUgez4aXhPSnII19fP-101">
          <mxGeometry y="90" width="120" height="30" as="geometry" />
        </mxCell>
      </root>
    </mxGraphModel>
  </diagram>
</mxfile>
